<svg width="245" height="75" viewBox="0 0 245 75" fill="none" xmlns="http://www.w3.org/2000/svg">
<path d="M32.9249 37.6898C44.5354 38.1933 42.3868 30.8739 38.6835 25.3506C41.6733 29.2418 45.007 34.5907 46.5751 40.1915C49.6221 51.0737 32.9249 40.1915 14.7653 40.1915C-3.39431 40.1915 22.3217 22.4296 14.7653 17.9266C7.20896 13.4236 36.4594 5.04301 46.5751 10.2965C56.6909 15.55 62.2972 49.4476 62.2972 61.4556C62.2972 73.4637 55.2283 63.0817 32.9249 57.453C15.0822 52.95 3.95893 53.9923 0.627638 55.0764C1.44014 54.9513 12.6447 57.9033 50.9627 70.7118C98.8602 86.7225 59.9815 55.0764 62.2972 22.4296C64.6128 -10.2172 53.6439 3.41692 29.3905 0.289836C5.13706 -2.83725 6.59959 19.9279 0.627638 40.1915C-5.34432 60.455 32.9249 40.1915 46.5751 49.4476C60.2253 58.7038 47.0626 25.1814 41.0907 15.9253C35.1187 6.66909 29.3905 18.4269 25.003 22.4296C20.6154 26.4323 15.6185 36.9393 32.9249 37.6898Z" fill="#310081"/>
<path d="M102.4 35.8C104.467 35.8 105.767 35.3667 106.3 34.5C106.833 33.6333 107.1 32.1667 107.1 30.1V16.5C107.1 14.4333 106.833 12.9667 106.3 12.1C105.767 11.2333 104.467 10.8 102.4 10.8H90.2V72.3C90.2 73.3667 90 74.1 89.6 74.5C89.2667 74.8333 88.5667 75 87.5 75H82.2V7.7C82.2 6.63333 82.3667 5.93333 82.7 5.6C83.1 5.2 83.8333 5 84.9 5H105.6C109.067 5 111.5 5.73333 112.9 7.2C114.367 8.6 115.1 11.0333 115.1 14.5V32.1C115.1 35.2333 114.533 37.5333 113.4 39C112.267 40.4 110.333 41.2333 107.6 41.5L117.7 75H112.6C111.533 75 110.733 74.8333 110.2 74.5C109.733 74.1 109.333 73.3667 109 72.3L99.7 41.6H96.7C95.6333 41.6 94.9333 41.4333 94.6 41.1C94.3333 40.7 94.2 39.9667 94.2 38.9V35.8H102.4Z" fill="#310081"/>
<path d="M152.591 75V26.9C152.591 25.8333 152.758 25.1333 153.091 24.8C153.491 24.4 154.225 24.2 155.291 24.2H160.591V72.3C160.591 73.3667 160.391 74.1 159.991 74.5C159.658 74.8333 158.958 75 157.891 75H152.591ZM127.591 26.9C127.591 25.8333 127.758 25.1333 128.091 24.8C128.491 24.4 129.225 24.2 130.291 24.2H135.591V63.5C135.591 65.5667 135.858 67.0333 136.391 67.9C136.925 68.7667 138.225 69.2 140.291 69.2H148.591V72.3C148.591 73.3667 148.425 74.1 148.091 74.5C147.825 74.8333 147.158 75 146.091 75H137.091C133.625 75 131.158 74.3 129.691 72.9C128.291 71.4333 127.591 68.9667 127.591 65.5V26.9Z" fill="#310081"/>
<path d="M181.29 52.5C179.557 52.5 178.123 52.3667 176.99 52.1C175.923 51.8333 175.057 51.3667 174.39 50.7C173.79 49.9667 173.357 49.0333 173.09 47.9C172.89 46.7667 172.79 45.3333 172.79 43.6V33.7C172.79 30.2333 173.49 27.8 174.89 26.4C176.357 24.9333 178.823 24.2 182.29 24.2H195.69C196.757 24.2 197.423 24.4 197.69 24.8C198.023 25.1333 198.19 25.8333 198.19 26.9V30H184.99C182.923 30 181.623 30.4333 181.09 31.3C180.557 32.1667 180.29 33.6333 180.29 35.7V41C180.29 42.2 180.323 43.2 180.39 44C180.523 44.7333 180.757 45.3 181.09 45.7C181.423 46.1 181.89 46.3667 182.49 46.5C183.157 46.6333 183.99 46.7 184.99 46.7H190.69C192.423 46.7 193.823 46.8333 194.89 47.1C196.023 47.3667 196.89 47.8667 197.49 48.6C198.157 49.2667 198.59 50.1667 198.79 51.3C199.057 52.4333 199.19 53.8667 199.19 55.6V65.5C199.19 68.9667 198.457 71.4333 196.99 72.9C195.59 74.3 193.157 75 189.69 75H175.29C174.223 75 173.523 74.8333 173.19 74.5C172.923 74.1 172.79 73.3667 172.79 72.3V69.2H186.99C189.057 69.2 190.357 68.7667 190.89 67.9C191.423 67.0333 191.69 65.5667 191.69 63.5V58.2C191.69 56.1333 191.423 54.6667 190.89 53.8C190.357 52.9333 189.057 52.5 186.99 52.5H181.29Z" fill="#310081"/>
<path d="M244.19 72.3C244.19 73.3667 243.99 74.1 243.59 74.5C243.257 74.8333 242.557 75 241.49 75H236.19V35.7C236.19 33.6333 235.923 32.1667 235.39 31.3C234.857 30.4333 233.557 30 231.49 30H219.19V72.3C219.19 73.3667 218.99 74.1 218.59 74.5C218.257 74.8333 217.557 75 216.49 75H211.19V7.7C211.19 6.63333 211.357 5.93333 211.69 5.6C212.09 5.2 212.823 5 213.89 5H219.19V30C219.59 28.0667 220.19 26.6333 220.99 25.7C221.857 24.7 223.257 24.2 225.19 24.2H234.69C238.157 24.2 240.59 24.9333 241.99 26.4C243.457 27.8 244.19 30.2333 244.19 33.7V72.3Z" fill="#310081"/>
</svg>
