<svg width="288" height="108" viewBox="0 0 288 108" fill="none" xmlns="http://www.w3.org/2000/svg">
<path d="M57.5067 57.139C77.7856 57.8254 74.0329 47.8476 67.5647 40.3184C72.7867 45.6228 78.6092 52.9143 81.3482 60.5493C86.67 75.3839 57.5067 60.5493 25.7891 60.5493C-5.92851 60.5493 38.987 36.3364 25.7891 30.198C12.5912 24.0595 63.68 12.6352 81.3482 19.7967C99.0164 26.9582 108.808 73.1672 108.808 89.5364C108.808 105.906 96.4619 91.7531 57.5067 84.08C26.3426 77.9416 6.91468 79.3625 1.09623 80.8403C2.51536 80.6698 22.0852 84.6939 89.0115 102.154C172.669 123.98 104.764 80.8403 108.808 36.3364C112.853 -8.16739 93.6946 10.4185 51.3335 6.15568C8.97239 1.89287 11.5269 32.9262 1.09623 60.5493C-9.33439 88.1723 57.5067 60.5493 81.3482 73.1672C105.19 85.7851 82.1997 40.0877 71.769 27.4698C61.3384 14.8518 51.3335 30.88 43.6702 36.3364C36.0069 41.7928 27.2792 56.1159 57.5067 57.139Z" fill="#310081"/>
<path d="M137.125 19.5254H150.141L148.966 25.5783C151.015 23.6258 152.853 22.1288 154.48 21.0875C156.167 20.0461 157.975 19.5254 159.903 19.5254C161.831 19.5254 163.338 20.2414 164.422 21.6732C165.567 23.1051 166.14 24.8298 166.14 26.8475C166.14 28.7349 165.567 30.3946 164.422 31.8264C163.277 33.2583 161.68 33.9742 159.632 33.9742C158.306 33.9742 157.402 33.6488 156.92 32.998C156.498 32.282 156.167 31.2732 155.926 29.9715C155.745 29.1254 155.564 28.5071 155.383 28.1166C155.203 27.7261 154.871 27.5308 154.389 27.5308C153.124 27.5308 152.039 27.8237 151.135 28.4095C150.291 28.9302 149.177 29.8739 147.791 31.2407L140.56 68.339H127.544L137.125 19.5254Z" fill="#310081"/>
<path d="M175.809 68.9247C172.374 68.9247 169.512 67.6556 167.222 65.1173C164.932 62.579 163.787 58.6088 163.787 53.2068C163.787 48.3905 164.661 43.3464 166.409 38.0746C168.216 32.7376 170.868 28.2468 174.363 24.602C177.918 20.8922 182.136 19.0373 187.017 19.0373C189.488 19.0373 191.326 19.4929 192.531 20.4041C193.736 21.3153 194.339 22.5193 194.339 24.0163V24.6997L195.333 19.5254H208.349L201.841 52.7186C201.6 53.6949 201.48 54.7363 201.48 55.8427C201.48 58.6414 202.715 60.0407 205.185 60.0407C206.873 60.0407 208.319 59.1946 209.524 57.5024C210.79 55.8102 211.784 53.5973 212.507 50.8637H216.303C214.074 57.8929 211.302 62.6766 207.988 65.2149C204.734 67.6881 201.449 68.9247 198.135 68.9247C195.604 68.9247 193.555 68.1763 191.989 66.6793C190.482 65.1173 189.578 62.8719 189.277 59.943C187.53 62.6115 185.571 64.7919 183.402 66.4841C181.293 68.1112 178.762 68.9247 175.809 68.9247ZM181.684 59.4549C183.191 59.4549 184.667 58.7064 186.113 57.2095C187.62 55.6475 188.644 53.5322 189.187 50.8637L193.525 28.8C193.525 27.9539 193.224 27.1403 192.621 26.3593C192.019 25.5132 191.085 25.0902 189.819 25.0902C187.409 25.0902 185.24 26.6197 183.311 29.6786C181.383 32.6725 179.877 36.3173 178.792 40.6129C177.707 44.8434 177.165 48.5858 177.165 51.84C177.165 55.0942 177.587 57.1769 178.43 58.0881C179.334 58.9993 180.419 59.4549 181.684 59.4549Z" fill="#310081"/>
<path d="M222.844 68.9247C219.952 68.9247 217.512 68.339 215.523 67.1675C213.534 65.9308 212.058 64.3688 211.094 62.4814C210.13 60.5288 209.648 58.5112 209.648 56.4285C209.648 54.2807 210.13 52.4258 211.094 50.8637C211.998 49.2366 213.113 48.0651 214.438 47.3492C216.788 42.7932 218.837 38.2047 220.585 33.5837C222.332 28.8976 223.989 23.8536 225.556 18.4515L238.934 16.499C239.235 24.8298 239.747 33.8441 240.47 43.5417C240.772 47.4468 240.922 50.278 240.922 52.0353C240.922 53.5322 240.802 54.7688 240.561 55.7451C243.393 53.9878 245.562 52.3607 247.069 50.8637H250.865C247.008 55.68 242.399 59.7478 237.036 63.0671C235.288 65.0847 233.119 66.5817 230.528 67.558C227.997 68.4692 225.436 68.9247 222.844 68.9247ZM219.952 61.2122C222.182 61.2122 224.05 60.4963 225.556 59.0644C227.063 57.6325 227.816 55.322 227.816 52.1329C227.816 50.1803 227.635 47.4468 227.274 43.9322C226.671 36.5125 226.279 31.5336 226.098 28.9953C224.652 34.1369 222.212 40.2875 218.777 47.4468C220.163 48.2278 220.856 49.3668 220.856 50.8637C220.856 52.1003 220.464 53.2068 219.681 54.183C218.958 55.1593 218.024 55.6475 216.879 55.6475C215.613 55.6475 214.8 55.2244 214.438 54.3783C214.438 56.7214 214.86 58.4461 215.704 59.5525C216.608 60.659 218.024 61.2122 219.952 61.2122Z" fill="#310081"/>
<path d="M278.057 68.9247C274.863 68.9247 272.544 67.8834 271.097 65.8007C269.651 63.718 268.928 61.082 268.928 57.8929C268.928 56.5261 269.079 54.9966 269.38 53.3044C269.681 51.5471 269.982 49.8549 270.284 48.2278C270.645 46.6007 270.886 45.5593 271.007 45.1037C271.489 42.8258 271.941 40.5803 272.363 38.3675C272.785 36.1546 272.995 34.3647 272.995 32.998C272.995 29.6786 271.911 28.019 269.741 28.019C268.295 28.019 266.97 28.7349 265.764 30.1668C264.619 31.5986 263.685 33.4861 262.962 35.8292L256.545 68.339H243.529L256.635 1.95255L270.013 0L265.132 24.5044C268.145 20.9247 271.67 19.1349 275.707 19.1349C278.78 19.1349 281.221 20.0461 283.029 21.8685C284.836 23.6908 285.74 26.4569 285.74 30.1668C285.74 32.0542 285.529 34.1695 285.108 36.5125C284.686 38.7905 284.083 41.5892 283.3 44.9085C282.818 46.9261 282.366 48.9112 281.944 50.8637C281.582 52.7512 281.402 54.2481 281.402 55.3546C281.402 56.6563 281.673 57.6651 282.215 58.381C282.757 59.0969 283.691 59.4549 285.017 59.4549C286.463 59.4549 287.458 59.2597 288 58.8692C287.638 62.1885 286.524 64.6942 284.656 66.3864C282.848 68.0786 280.648 68.9247 278.057 68.9247Z" fill="#310081"/>
</svg>
